# xmcd
#
# Track frame offsets:
#	150
#	17242
#	37695
#	52856
#	69091
#	84329
#	98271
#	112428
#	126134
#	142215
#	158912
#	173850
#	188338
#	207474
#	225463
#	244263
#	259416
#	277424
#	289903
#	308324
#
# Disc length: 4333 seconds
# Revision: 0
# Processed by: cddbd v1.5.2PL0 Copyright (c) Steve Scherf et al.
# Submitted via: dBpowerAMP V12.0
#
DISCID=1510eb14
DTITLE=Various Artist - Country Radio July 2011
DYEAR=2011
DGENRE=Country
TTITLE0=Jason Aldean - Dirt Road Anthem
TTITLE1=Brad Paisley and Carrie Underwood - Remind Me
TTITLE2=Zac Brown Band Feat Jimmy Buffet - Knee Deep
TTITLE3=Lady Antebellum - Just A Kiss
TTITLE4=Janedear Girls The - Shotgun Girl
TTITLE5=Ryan Laird - I'm Your Man
TTITLE6=Dierks Bentley - Am I The Only One
TTITLE7=Thompson Square - I Got You
TTITLE8=Deric Ruttan - Sunshine Hey Little Girl
TTITLE9=Six West - I Will Wait
TTITLE10=Big and Rich - Fake ID
TTITLE11=Johnny Reid - You Gave My Heart A Home
TTITLE12=Paul Brandt - Give It Away
TTITLE13=Aaron Pritchett - Drive
TTITLE14=Lauren Alaina - Like My Mother Does
TTITLE15=Darius Rucker - I Got Nothin
TTITLE16=Randy Montana - 1000 Faces
TTITLE17=Kellie Prickler - Tough
TTITLE18=Scotty McCreery - I Love You This Big
TTITLE19=Aaron Lines - Unloving You
EXTD=
EXTT0=
EXTT1=
EXTT2=
EXTT3=
EXTT4=
EXTT5=
EXTT6=
EXTT7=
EXTT8=
EXTT9=
EXTT10=
EXTT11=
EXTT12=
EXTT13=
EXTT14=
EXTT15=
EXTT16=
EXTT17=
EXTT18=
EXTT19=
PLAYORDER=
